<svg xmlns="http://www.w3.org/2000/svg" width="37.008" height="30" viewBox="0 0 37.008 30">
  <path id="Path_1305" data-name="Path 1305" d="M696.575,261.263h0a1.679,1.679,0,0,1-.461-.065,1.655,1.655,0,0,1-.337-.139q-.059-.032-.116-.07a13.61,13.61,0,0,0-7.475-2.07,13.825,13.825,0,0,0-7.562,2.089,1.667,1.667,0,0,1-2.552-1.412V235.275a1.668,1.668,0,0,1,.781-1.412,18.014,18.014,0,0,1,17.723-.519,18.012,18.012,0,0,1,17.723.519,1.665,1.665,0,0,1,.781,1.411V259.6a1.667,1.667,0,0,1-2.552,1.412,13.407,13.407,0,0,0-7.5-2.089,13.772,13.772,0,0,0-7.533,2.07c-.035.023-.069.044-.106.064a1.653,1.653,0,0,1-.807.209Zm1.665-25.03v20.636a18.424,18.424,0,0,1,13.5,0V236.232a14.766,14.766,0,0,0-13.5,0Zm-16.838,0v20.636a18.419,18.419,0,0,1,13.5,0V236.233a14.763,14.763,0,0,0-13.5,0Z" transform="translate(-678.07 -231.263)" fill="#fff"/>
</svg>
