<svg xmlns="http://www.w3.org/2000/svg" width="37.008" height="30" viewBox="0 0 37.008 30">
  <path id="Path_1330" data-name="Path 1330" d="M714.3,233.864a18.012,18.012,0,0,0-17.723-.519,18.013,18.013,0,0,0-17.723.519,1.668,1.668,0,0,0-.781,1.412V259.6a1.667,1.667,0,0,0,2.552,1.412,13.824,13.824,0,0,1,7.562-2.089,13.61,13.61,0,0,1,7.475,2.07q.057.038.116.07a1.657,1.657,0,0,0,.337.139,1.677,1.677,0,0,0,.461.065h0a1.653,1.653,0,0,0,.807-.209c.037-.02.071-.041.106-.064a13.771,13.771,0,0,1,7.533-2.07,13.407,13.407,0,0,1,7.5,2.089,1.667,1.667,0,0,0,2.552-1.412V235.275A1.665,1.665,0,0,0,714.3,233.864Z" transform="translate(-678.07 -231.263)" fill="#fff"/>
</svg>
