<svg xmlns="http://www.w3.org/2000/svg" width="33.881" height="30.45" viewBox="0 0 33.881 30.45">
  <g id="Group_3115" data-name="Group 3115" transform="translate(-881.5 -610.5)">
    <path id="Path_1316" data-name="Path 1316" d="M6.431,9.147H8.147a3.431,3.431,0,0,0,3.431-3.431A1.716,1.716,0,0,1,13.294,4H23.588A1.716,1.716,0,0,1,25.3,5.716a3.431,3.431,0,0,0,3.431,3.431H30.45a3.431,3.431,0,0,1,3.431,3.431V28.019A3.431,3.431,0,0,1,30.45,31.45H6.431A3.431,3.431,0,0,1,3,28.019V12.578A3.431,3.431,0,0,1,6.431,9.147" transform="translate(880 608)" fill="none" stroke="#fff" stroke-linecap="round" stroke-linejoin="round" stroke-width="3"/>
    <circle id="Ellipse_2" data-name="Ellipse 2" cx="5.5" cy="5.5" r="5.5" transform="translate(893 622)" fill="none" stroke="#fff" stroke-linecap="round" stroke-linejoin="round" stroke-width="3"/>
  </g>
</svg>
