<svg xmlns="http://www.w3.org/2000/svg" width="30" height="30" viewBox="0 0 30 30">
  <g id="Group_3117" data-name="Group 3117" transform="translate(-345 -951.722)">
    <path id="Path_1326" data-name="Path 1326" d="M431.836,416.836a15,15,0,1,0,15,15A15.017,15.017,0,0,0,431.836,416.836Zm0,27.577a12.577,12.577,0,1,1,12.577-12.577A12.591,12.591,0,0,1,431.836,444.413Z" transform="translate(-71.836 534.886)" fill="#fff"/>
    <path id="Path_1327" data-name="Path 1327" d="M649.657,725.174a1.435,1.435,0,0,0-2.021.189l-9.359,11.292-4.477-4.009a1.435,1.435,0,0,0-1.915,2.139l5.588,5a1.435,1.435,0,0,0,.957.366c.035,0,.071,0,.107,0a1.436,1.436,0,0,0,1-.516l10.311-12.44A1.435,1.435,0,0,0,649.657,725.174Z" transform="translate(-280.888 234.8)" fill="#fff"/>
  </g>
</svg>
