<svg xmlns="http://www.w3.org/2000/svg" width="30" height="30" viewBox="0 0 30 30">
  <path id="Path_1328" data-name="Path 1328" d="M-881.207,458.141a15.017,15.017,0,0,0-15,15,15.017,15.017,0,0,0,15,15,15.017,15.017,0,0,0,15-15A15.017,15.017,0,0,0-881.207,458.141Zm-7.088,15.725,4.477,4.009,9.359-11.292a1.435,1.435,0,0,1,2.021-.189,1.435,1.435,0,0,1,.189,2.021l-10.311,12.44a1.436,1.436,0,0,1-1,.516c-.036,0-.071,0-.106,0a1.435,1.435,0,0,1-.958-.366l-5.588-5a1.435,1.435,0,0,1-.112-2.027A1.435,1.435,0,0,1-888.295,473.866Z" transform="translate(896.207 -458.141)" fill="#fff"/>
</svg>
