<svg xmlns="http://www.w3.org/2000/svg" width="34.072" height="30" viewBox="0 0 34.072 30">
  <path id="Subtraction_1" data-name="Subtraction 1" d="M32.419,30H1.662a1.662,1.662,0,0,1-1.437-.833,1.679,1.679,0,0,1,0-1.667L15.6.832a1.656,1.656,0,0,1,2.873,0L33.854,27.5A1.667,1.667,0,0,1,32.419,30ZM17.027,21.482a1.465,1.465,0,1,0,.016,0Zm.008-11.232a1.443,1.443,0,0,0-1.456,1.426v6.333a1.456,1.456,0,0,0,2.912,0V11.676A1.442,1.442,0,0,0,17.035,10.25Z" transform="translate(-0.004 0)" fill="#fff"/>
</svg>
