<svg xmlns="http://www.w3.org/2000/svg" width="34.22" height="30" viewBox="0 0 34.22 30">
  <g id="Group_3116" data-name="Group 3116" transform="translate(-160 -952)">
    <path id="Path_1343" data-name="Path 1343" d="M3.4,33a1.667,1.667,0,0,1-1.443-2.5L17.4,3.831a1.667,1.667,0,0,1,2.885,0L35.73,30.5A1.667,1.667,0,0,1,34.288,33ZM18.846,8,6.293,29.665H31.4Z" transform="translate(158.267 949.001)" fill="#fff"/>
    <path id="Path_1307" data-name="Path 1307" d="M814.687,375.537a1.444,1.444,0,0,1-1.462-1.425v-6.334a1.463,1.463,0,0,1,2.924,0v6.334A1.444,1.444,0,0,1,814.687,375.537Z" transform="translate(-637.582 595.898)" fill="#fff"/>
    <path id="Path_1308" data-name="Path 1308" d="M814.69,386.34a1.426,1.426,0,1,1-.016-2.85h.016a1.426,1.426,0,1,1,0,2.85Z" transform="translate(-637.576 589.993)" fill="#fff"/>
  </g>
</svg>
