<svg xmlns="http://www.w3.org/2000/svg" width="20" height="20" viewBox="0 0 20 20">
  <g id="Group_10" data-name="Group 10" transform="translate(-286.47 -286.47)">
    <path id="Path_1331" data-name="Path 1331" d="M575.014,464.573h-3.465V461.01a.656.656,0,0,0-.647-.661h-.279a.656.656,0,0,0-.647.661v4.055a.666.666,0,0,0-.023.169v.285a.656.656,0,0,0,.647.661h4.414a.656.656,0,0,0,.647-.661v-.285A.656.656,0,0,0,575.014,464.573Z" transform="translate(-274.62 -168.446)" fill="#041b36"/>
    <path id="Path_1332" data-name="Path 1332" d="M296.47,286.47a10,10,0,1,0,10,10A10,10,0,0,0,296.47,286.47Zm.226,18.747-.226,0-.226,0a8.75,8.75,0,0,1-8.521-8.521q0-.113,0-.226t0-.226a8.75,8.75,0,0,1,8.521-8.521l.226,0,.226,0a8.75,8.75,0,0,1,8.521,8.521q0,.113,0,.226t0,.226A8.75,8.75,0,0,1,296.7,305.217Z" fill="#041b36"/>
  </g>
</svg>
